<?xml version="1.0" encoding="UTF-8"?>
<!-- Generator: Adobe Illustrator 21.0.0, SVG Export Plug-In . SVG Version: 6.00 Build 0)  -->
<svg version="1.1" id="Layer_1" xmlns="http://www.w3.org/2000/svg" xmlns:xlink="http://www.w3.org/1999/xlink" x="0px" y="0px" viewBox="0 0 30 30" style="enable-background:new 0 0 30 30;" xml:space="preserve">
<style type="text/css">
	.st0{fill:#D8D8D8;}
	.st1{fill:none;}
</style>
<g>
	<path class="st0" d="M16.7,17.5c-0.1,0-0.1,0.1-0.2,0.2c-0.1,0.1-0.1,0.3-0.1,0.4c-0.3,1.1-0.5,2.3-0.8,3.4c0,0.2-0.1,0.4-0.1,0.6   c0,0.1,0.1,0.2,0.2,0.2c0.1,0,0.3-0.1,0.3-0.2c0.1-0.2,0.1-0.3,0.1-0.5c0.2-1,0.4-1.9,0.6-2.9c0.1-0.3,0.1-0.6,0.2-1   S16.9,17.4,16.7,17.5z"/>
	<path class="st0" d="M26.5,14c-0.5,0.4-0.4,0.4-0.7,0.5c-0.5,0.2-1,0.2-1.5,0.1c-0.7,0-1.4-0.4-1.8-1c-0.2-0.3-0.3-0.7-0.3-1   c-0.1-0.5,0.1-1,0.5-1.4c0.3-0.4,0.6-0.7,1-0.9c0.5-0.4,1-0.9,1.3-1.5c0.3-0.8,0.2-1.6-0.1-2.4c-0.3-1-1.1-1.9-2.1-2.3   c0,0,1.4,1.8,1.3,2.9c-0.1,1.2-1.1,2.1-2.3,2.1c-0.9,0-1.9-0.4-2.6-1c-0.6-0.7-1-1.6-1.1-2.6c-0.1-0.8,0-1.5,0.4-2.2   c0.7-0.8,1.6-1.3,2.6-1.4c-1.2-0.2-2.4-0.1-3.4,0.5c-1.4,0.8-2,2.5-1.5,4c0.2,0.8,1.3,3,1.3,4c0,0.8-0.4,3.3-2.1,3.6   c-0.5,0.2-1.1,0.1-1.6-0.1c-1.6-0.9-1.5-3.5-1.3-4.4c0.5-1.5,0.5-3.1-0.1-4.5c-0.3-0.8-0.8-1.5-1.4-2C10,2.2,9.1,1.6,8.2,1   c1,1,1.7,2.3,2.3,3.6c0.3,1.5-0.2,3.1-1.3,4.2c-0.8,0.8-1.3,1.1-1.8,1.8c-0.7,0.8-1.4,1.7-1.9,2.6c0,0,0-0.1,0-0.1   c-0.1-0.2-0.3-0.6-0.4-0.6c-1.2-1.3-3.2-0.6-3.5-0.6c0.3,0,2.1,0.2,2.5,1.5c0.3,1,0.5,2,0.5,3.1c-0.1,0.5-0.1,0.9-0.1,1.4   C4.4,24,9.3,29,15.5,29c4.6,0,8.7-2.8,10.4-7.1c0.6-1.4,0.9-2.9,1-4.4c0-0.8,0.1-1.7,0.3-2.5c0.2-0.6,0.7-1.2,1.3-1.4   C27.9,13.3,27,13.4,26.5,14z M12.8,23.2C12.8,23.2,12.8,23.2,12.8,23.2l-2,0.1c0.2-1,0.4-1.9,0.6-2.9h-0.6   c-0.1,0.3-0.1,0.6-0.2,0.8l-0.4,2c0,0,0,0.1-0.1,0.1c0,0,0,0,0,0H8.2c0.1-0.3,0.1-0.5,0.2-0.7c0.4-1.6,0.7-3.3,1.1-5l0.2-1.1   c0,0,0-0.1,0.1-0.1h1.9c-0.2,0.8-0.4,1.6-0.5,2.4h0.6l0.5-2.4h2c0,0.2-0.1,0.4-0.1,0.6L13,22.4C12.9,22.6,12.8,22.9,12.8,23.2z    M19,17.9c-0.2,0.9-0.3,1.7-0.5,2.5c-0.1,0.4-0.2,0.8-0.3,1.2c-0.2,0.8-0.8,1.4-1.6,1.5c-0.3,0.1-0.7,0.2-1,0.2   c-0.4,0-0.8-0.1-1.1-0.2c-0.6-0.2-0.9-0.8-0.8-1.4c0.1-0.8,0.3-1.5,0.5-2.3c0.1-0.5,0.2-1,0.4-1.6c0.2-0.7,0.7-1.3,1.5-1.5   c0.6-0.2,1.3-0.2,2,0C18.7,16.5,19.1,17.2,19,17.9C19,17.9,19,17.9,19,17.9z M23.7,17.8h-1.2c-0.4,1.8-0.8,3.6-1.2,5.4h-2   c0.4-1.8,0.8-3.6,1.2-5.5h-1.1l0.3-1.4H24L23.7,17.8z"/>
	<path class="st0" d="M6.2,9.4c-0.3-0.3-0.6-0.6-0.8-1C5.3,8,5.3,7.5,5.6,7.1c0.6-0.9,1.2-1.3,1.3-1.8C7,4.7,6.8,4,6.4,3.4   C7,4,7.5,4.7,8,5.5C8.4,6.1,8.3,7,7.8,7.5c-0.3,0.3-1.2,0.5-1.4,1C6.2,8.8,6.2,9.1,6.2,9.4z"/>
</g>
<path class="st1" d="M0,0h30v30H0V0z"/>
</svg>