<svg width="400" height="400" xmlns="http://www.w3.org/2000/svg" fill="#fff">
 <g>
  <title>Layer 1</title>
  <path d="m138.896,109.123c1.092,1.148 2.802,2.83 5.041,3.418c1.147,0 2.297,0.531 3.39,0c0,0 -0.562,-2.801 0,-5.099c0,-0.53 0.588,-1.735 0.588,-1.735s-1.146,-0.533 -2.828,-0.533l-3.389,0c-1.151,0 -2.24,0.533 -2.802,0.533c-0.588,0 -1.147,0.588 -1.147,0.588l0,0c0,-0.001 0,1.147 1.147,2.828l0,0z" id="svg_1"/>
  <path d="m254.71414,182.53918c2.50165,0.79125 4.20611,1.66727 5.04346,1.66727c0,-0.87602 -0.83735,-0.87602 -0.83735,-1.66727c-1.70446,-4.99736 -0.83289,-10.078 -0.83289,-10.078c-5.918,-1.70743 -10.08098,-0.83587 -11.79138,0.87454c0.83735,4.99736 5.04644,7.58081 8.41817,9.20346l-0.00001,0zm95.76778,83.97938c-1.70594,0 -2.62807,0 -4.20908,-0.78976c-5.86892,-0.87454 -11.78841,-0.87454 -18.53632,-0.87454c-2.41688,0 -4.20611,0 -6.58283,0.87454c-1.83088,0 -3.41486,0.78976 -5.1208,0.78976c-14.24693,3.41635 -30.20277,8.41222 -51.15746,26.86674c-2.62361,3.37619 -5.95816,6.66165 -10.16427,9.28973c-2.54181,0.78976 -5.04049,2.45555 -7.5823,2.45555c-3.33157,0 -6.66165,0 -10.91387,-1.66579l0,0c-0.78976,0.79125 -1.62414,0.79125 -2.50165,1.66579l0,0l-0.83438,0l-0.87602,0c-1.62712,0.91469 -2.45555,1.70743 -4.99736,2.50017l0,0c-1.66727,0.79274 -2.49868,0.79274 -4.20611,1.70594l0,0c-1.6643,0 -3.33157,0.91767 -5.04346,0.91767l0,0l-3.33157,0l-0.87454,0l-3.33157,0l-0.83438,0c-1.70743,0 -2.54181,-0.91767 -4.20611,-0.91767l0,0c-0.83587,0 -1.70743,0 -2.54181,-0.91321l0,0c-1.62563,-0.79274 -3.33157,-0.79274 -4.20611,-1.5825l-0.83587,0c-0.83289,0 -0.83289,-0.79274 -1.70594,-0.79274c-0.79274,0 -0.79274,0 -1.62414,-0.91172c-1.70743,-0.87751 -3.33455,-1.66727 -5.04198,-2.45703c0,0 -0.83587,0 -0.83587,-0.83735c-0.87454,0 -0.87454,-0.87454 -1.70594,-0.87454c-0.87454,0 -0.87454,-0.91469 -1.66579,-0.91469c-0.83438,-0.78976 -1.66579,-0.78976 -2.54181,-1.5825c-0.83438,-0.91321 -1.62414,-1.70594 -3.33157,-2.58048c0,0 -0.83438,0 -0.83438,-0.83587l0,0l-0.87454,-0.78827c-0.83587,-0.87602 -2.50165,-1.79221 -3.33157,-2.58197s-1.70743,-0.79125 -2.54181,-1.58101l-0.79125,-0.91469l0,0l0,0l0,-0.87454l-0.87454,-0.83438l-0.83587,-0.79274s0,-0.78976 -0.83289,-0.78976l-0.87454,-0.87751l-0.83587,-0.91469c0,-0.78976 -0.83438,-0.78976 -0.83438,-1.58101l0,-0.83438c0,-0.87751 -0.83438,-0.87751 -0.83438,-1.79221l0,0c0,-0.79125 -0.83289,-1.58101 -0.83289,-1.58101l0,0c-0.83289,-0.91767 -0.83289,-1.70594 -1.70594,-2.58048l0,0c-1.62414,-3.41783 -3.33306,-6.70925 -5.04049,-10.8752l0,0c-4.16744,-10.07949 -7.49752,-23.45485 -7.49752,-37.02952l0,0c0,-3.2929 0.83289,-7.5005 1.62414,-10.8752l0,0c0.83289,-2.50165 0.83289,-4.20611 1.70594,-6.71074l0,0c0.83587,-3.37322 2.50017,-7.5823 4.16744,-10.95105l0,0c1.70594,-2.50165 2.53884,-4.99884 5.04049,-7.5005l0,0c0.87454,1.70743 1.70594,2.50165 2.53884,4.20908s2.50165,3.29141 3.37619,4.16595c1.66579,1.70446 2.54032,3.3286 4.16595,5.1208l1.70743,1.5825c0.83438,0.78976 2.49868,1.70594 3.33157,3.37322l0,0c3.41635,3.41932 6.74792,5.918 10.95403,9.20495l0,0l0,3.37619l0.83587,15.95733l0,0l0,0l0,0c0,2.6251 0,5.91651 0.83289,8.41519l2.50165,12.57817c2.53884,9.24957 7.5823,17.62163 14.2856,25.24408c0,0 0,0.879 0.83438,0.879l0,0c0.83438,0.78827 2.54181,2.4139 3.37619,3.28844l0,0l0,0c1.66727,0.91618 2.50165,2.50314 4.20908,3.29141l0,0c1.6643,0.91767 2.49868,1.79221 4.20611,2.58048l0.83438,0l5.04049,2.50314c0.79274,0 0.79274,0 1.66727,0.91469c1.66727,0.79125 2.54181,1.58101 4.20611,1.58101c1.66727,0.91469 4.20908,1.79221 6.70776,2.62659c-7.53917,-3.41635 -14.28708,-8.4137 -18.45303,-13.49732c-1.70594,-1.70446 -2.53884,-3.28844 -3.41337,-5.08065c-7.54214,-10.8752 -9.20644,-24.32641 -10.08246,-32.74309l0,-4.16595l0,-6.71074c10.957,5.08362 20.16493,5.08362 26.91284,3.2929c1.70446,0 2.53884,-0.79125 4.16595,-0.79125c7.58379,-2.50165 12.6213,-7.5823 15.11998,-10.078c2.54181,-0.87602 5.04198,-2.50017 7.58379,-4.16744c1.66727,-1.70594 3.3747,-3.29141 4.20611,-5.12229c0,-0.78976 0.91618,-0.78976 0.91618,-1.58101s0,-0.78976 0.78976,-1.70446l0,-3.37619l0,0l0,0c4.16595,-3.29141 6.66314,-8.37206 4.95869,-15.87255c0.83587,-5.08065 -0.79274,-9.28973 -2.45703,-12.66443c-0.91618,-1.70594 -1.70594,-3.29141 -2.50165,-4.20611c-0.78976,-1.66727 -1.70594,-2.50314 -1.70594,-2.50314l0,2.50314l0,2.50017l0,1.70594c-1.70594,11.74527 -5.04198,19.24279 -5.87338,22.65914l0,1.66727l0,-1.66727c0,-13.36793 -5.04198,-20.16195 -7.53619,-22.65914c-0.87454,-0.91618 -1.70743,-0.91618 -1.70743,-0.91618c-4.20611,10.2074 -10.07949,16.87203 -13.41552,20.16344l0,-4.16595c0,-1.62563 0,-2.41688 -0.83289,-3.33157c-0.87751,-3.37768 -1.70594,-5.87338 -2.58345,-7.58379c-1.62563,-2.45555 -3.33157,-4.16595 -3.33157,-4.16595l-0.83587,0.87454c-0.83289,0.83587 -1.70446,1.62563 -3.33008,3.29141l-0.87602,0.91469c-0.83587,0.79125 -2.49868,2.50314 -3.33008,3.29141l-4.24627,4.29237l0,0s3.41337,-8.49848 -4.16893,-21.03649c-0.83587,0.87454 -0.83587,0.87454 -1.66727,1.66281c-0.83141,0.83587 -0.83141,0.83587 -1.70594,1.62712c-1.66579,0.87602 -4.16595,2.58197 -7.49752,4.16595c-1.70594,0.91618 -2.58048,0.91618 -4.24775,1.79072l0,-1.79072l0,-4.16595c0.83438,-4.2076 0.83438,-8.4137 0.83438,-8.4137s-0.83438,0.91618 -1.70743,1.70594c-0.78976,0.91469 -2.49868,1.70743 -4.16595,2.50017c-2.49868,1.79221 -5.04049,5.08362 -5.91503,5.99831c-0.79125,-0.91469 -0.79125,-1.79072 -1.62712,-2.58197l0,0l-7.5823,-15.20475c-1.6643,-4.16744 -3.33157,-9.16479 -4.20611,-13.3709c-0.83438,-2.45555 -0.83438,-4.16595 -1.62563,-6.74792c0,-1.62563 -0.87454,-3.29141 -0.87454,-4.99736c0.87454,0.78976 2.50017,1.70594 3.3747,3.3747c3.33157,2.50017 6.70776,4.2076 10.91387,5.91651c4.20908,1.66727 7.54065,2.45703 11.7066,3.29141c1.70594,0.87454 4.24775,0.87454 5.91651,0.87454l5.04198,0l0.83438,0c1.70743,0.78976 3.37619,1.70743 4.20611,2.50017c1.66727,0.79125 4.16893,1.70594 6.70776,1.70594l1.70743,0s0.83438,0.87454 1.66727,0.87454c0.83289,0.83587 1.66281,0.83587 2.53884,1.62712c0.83438,0.78976 2.50165,1.6643 4.16595,1.6643c0.87454,0 1.70594,0.91767 2.54181,0.91767c1.66727,0 2.50165,0.78976 4.20611,0.78976l0,-0.78976c0,-0.91767 0,-1.79221 -0.83289,-3.37619c-0.87751,-2.62361 -0.87751,-5.12378 -1.70594,-6.78808c0,-0.83438 -0.87751,-1.62414 -0.87751,-1.62414c-0.78976,-0.87751 -4.16744,0 -11.70363,4.20611c-0.83587,-0.91767 -0.83587,-1.70743 -1.70743,-3.41635c-0.83438,-2.45703 -2.53884,-4.16595 -2.53884,-6.74792c0,0 -1.62712,-0.83438 -4.16893,1.79072c-0.83587,0.79125 -2.49868,1.58101 -3.37619,3.28993l-0.83438,0l-0.83438,0l-5.04049,-0.78976c-1.66579,-0.91767 -4.2076,-0.91767 -5.918,-1.70594c-4.16595,-0.79125 -7.49752,-2.58197 -10.87222,-4.2076c-3.3747,-1.66579 -6.70776,-4.16595 -10.08098,-6.78808l-3.3747,-3.29141c-0.79125,-0.87454 -2.50017,-2.50017 -3.33157,-4.16595l-0.87454,-0.91469l-4.16595,-7.58379c1.66579,1.79221 3.33306,3.41635 6.70627,4.2076c1.66579,0.87454 4.2076,0.87454 5.87338,0.87454c0,0 0,0.91469 0.83438,0.91469c0.83438,0.79274 1.70594,2.50165 3.37619,3.2929c3.3747,2.49868 6.70627,5.08213 9.24808,5.87189c-2.54181,-10.07949 1.70594,-12.57817 4.16595,-15.95436l0,0l0,0l0,0c0,7.5823 4.20611,14.24693 6.74792,16.74709c0,-2.50017 0.87454,-5.79158 1.66579,-8.37206l2.54032,-7.58379c0.83587,-2.37523 1.62563,-4.16744 2.50017,-4.99884l0,0c2.54181,10.99716 9.20644,21.86938 11.74527,23.5783c0,-5.12229 2.54181,-12.57817 3.37768,-15.16162c0.83438,-2.50017 0.83438,-3.41635 0.83438,-7.58379l0.83438,0c1.70446,4.16744 6.74792,13.45568 9.24957,19.32906c0.83587,1.70743 0.83587,2.58494 1.70743,3.41635c0.83438,-0.83438 1.62414,-1.70743 3.3286,-2.62659c6.71074,-7.45588 8.37503,-16.7456 8.37503,-21.74296c1.70446,15.07982 6.74494,28.5355 9.28675,32.74309c3.33157,-2.58197 6.66612,-6.78956 10.07949,-11.00013c0.79125,-0.78976 1.58101,-2.49868 2.50314,-3.28993c1.66281,-2.50017 4.16744,-5.08213 5.87189,-7.5823l0.78976,0c0,1.70594 0.91618,5.08213 0.91618,9.28824l0,4.20908l0,2.50017c0,2.45555 0,4.16595 -0.91618,5.87189l0,0c1.70594,-0.78976 3.41635,-2.58048 5.99683,-4.20611c3.29141,-2.58197 6.58431,-6.78808 9.16479,-10.95551l0,0l0,0l0.79125,0l0,0l0,0c0,0.87454 0,2.58345 0.78976,5.08213c0.91469,5.08213 0.91469,13.45568 0.91469,16.74709c5.08362,-3.29141 11.79138,-9.24808 15.08279,-21.82922l0,-0.79125c4.16744,-2.50017 5.08065,-4.99884 5.08065,-7.5823l0,-0.83438c0,0.83438 -5.87189,1.62414 -6.70776,1.62414c7.5823,-3.29141 14.28857,-8.37206 18.49765,-15.07833c0,0 0.87454,-0.79125 0.87454,-1.70743c2.41688,-3.3747 4.20908,-6.66463 4.99736,-9.95604c1.5825,-4.2076 3.37768,-8.49848 4.16744,-12.66443l0,-1.70743c0,-1.5825 0.83587,-2.49868 0.83587,-4.2076c1.66579,-6.66463 2.58048,-13.37239 2.58048,-20.16195c0,-4.16595 0,-9.16479 -0.91469,-13.37239l-2.50165,-12.53801c-1.6643,-4.29088 -2.58197,-8.49848 -4.95571,-12.70459c-0.91767,-0.87454 -1.79221,-1.66727 -1.79221,-2.50017c-0.83587,-0.79125 -1.62563,-1.66579 -2.41688,-2.58197c-1.78923,-1.5825 -3.3747,-3.29141 -5.08065,-4.99884c-2.50017,-1.66727 -5.08362,-2.45852 -8.49699,-2.45852c0,0 -2.37821,0 -3.2929,0.79125c0,0 -0.87454,0 -0.87454,0.87454l-0.79125,0.79125c-0.83587,0.83289 -1.62563,1.70743 -3.41783,1.70743c-3.29141,2.50017 -6.66165,5.87338 -9.16331,9.28973c-1.70594,1.5825 -2.6251,3.28993 -4.20611,4.99884c-1.70594,1.66579 -2.58048,3.3747 -3.3747,4.9572l0,0l-0.79274,0.91618c-0.83438,0.91618 -1.70594,0.91618 -2.62361,1.70743c-2.37672,1.5825 -5.79307,3.3747 -8.37503,4.16595c-1.5825,0.83289 -3.37322,1.62414 -4.99884,1.62414c-12.61981,4.16595 -28.5355,6.78956 -48.69299,3.3747c2.49868,1.70743 5.87189,3.41486 9.2466,4.2076c0.83587,0 2.50314,0.87454 3.33455,0.87454c1.70594,0 2.49868,0.79125 4.20462,1.70743c1.70743,0.79125 2.54181,2.50017 2.54181,4.2076c0,1.5825 -0.83438,3.3747 -0.83438,4.9572c-0.87454,1.70743 -1.70743,2.62361 -2.58197,3.41486c-0.83438,0.79125 -2.45555,1.5825 -3.33008,2.50017c-2.50314,0.87454 -5.87338,1.66579 -8.37652,1.66579c-2.53884,0 -4.20462,0 -6.74643,-0.79125c0.87454,2.50017 0.87454,4.99884 0,7.5823c0,1.62414 -0.83587,2.41688 -1.6643,4.2076l0,0c-4.20908,6.58134 -13.45568,7.49901 -20.16493,4.2076c-0.87454,-0.91618 -1.66727,-0.91618 -2.50017,-1.83236c-1.70594,-1.5825 -3.33306,-4.16595 -4.2076,-6.58134l0,0c0,-0.87454 -0.83289,-1.79221 -0.83289,-2.58197l0,-5.87338l0,-1.70743c-1.70594,0.79125 -3.41635,1.70743 -4.2076,2.58197c-0.83438,0.79125 -1.66579,1.62414 -2.54181,3.29141c-1.62414,2.49868 -2.49868,5.08213 -3.33157,7.58081l0,0.91618l0,7.49901c0,2.45703 0.83438,4.16595 1.70743,6.66463c-0.87454,-1.5825 -1.70743,-3.29141 -2.54181,-4.99884c-0.87454,-1.66727 -0.87454,-3.3747 -1.70743,-4.9572l0,-3.41635c0,-4.99884 2.54181,-10.95551 5.87338,-14.37186c0.87602,-0.79125 1.70743,-1.5825 2.54181,-2.37523c0.79125,-0.91618 2.50165,-1.79072 4.2076,-2.62361l1.70594,-0.79125l0,0c0.78976,0 1.62414,-0.79125 1.62414,-0.79125c1.70743,0 2.54181,-0.91618 4.20908,-0.91618c5.87338,-0.87454 10.91387,2.50017 15.11998,4.2076c4.16744,1.70743 9.25106,2.50017 13.45568,2.50017c2.50017,0 4.20611,0 5.87338,-0.79125s3.37768,-2.58197 4.20611,-3.41486c0.78976,-0.79125 0.78976,-1.5825 0.78976,-2.50017c0,-0.87454 0,-0.87454 -0.78976,-1.66579c-0.83438,-1.62414 -3.41635,-1.62414 -5.87338,-2.50017c-4.20611,-1.70743 -8.41073,-4.2076 -10.95254,-8.49699c-0.83587,-0.79125 -2.54181,-2.37523 -4.16744,-3.29141c-4.20908,-2.49868 -9.24957,-5.87338 -15.12295,-5.87338l-2.53884,0c-4.20908,0.79125 -9.24957,3.3747 -12.58114,5.87338c-1.70743,0.91618 -2.54181,1.70743 -3.33157,3.29141c-3.41635,3.41486 -5.918,7.58081 -7.5823,10.99716c-2.50165,8.37206 -6.74792,19.32906 -27.74425,24.32641c-1.66579,-1.5825 -5.83025,-4.99884 -10.87074,-8.37206c-1.70743,-0.79125 -2.54181,-1.70743 -4.20908,-3.3747c-20.99484,-13.3709 -58.81709,-28.53401 -102.47257,0.87454c13.41403,4.2076 41.15531,11.66347 60.48437,51.19613c0.83438,0.79125 0.83438,2.58197 1.66727,3.37619c-1.66727,2.49868 -6.74792,11.78841 -10.08098,26.07698c-1.66727,6.66165 -2.50017,14.24544 -3.3747,22.6175l0,4.20908c0,7.5823 0.87454,15.95436 1.70743,24.32344c1.66727,7.5823 3.33306,15.99749 5.87338,24.36955c0,0.79274 -0.87454,1.70594 -1.70743,2.58048c-3.33157,4.20908 -9.24808,13.3709 -7.49752,22.66063c1.62414,0 4.16595,0 6.66463,0.78976c1.66727,0.91469 3.41635,0.91469 4.16595,1.70743c0.87454,0.78976 2.58197,1.6643 2.58197,2.49868c-1.70743,0.87454 -2.58197,0.87454 -3.33157,0.87454c-1.74907,0.79274 -4.24924,1.62712 -5.08213,1.62712s-1.66727,0.87751 -1.66727,0.87751s-1.70743,3.28844 -1.70743,10.07651c0,3.37619 0,8.37355 0.87454,13.3709c1.66727,9.28973 5.83174,20.16493 15.07982,33.61912c-1.66579,-10.87371 -0.83289,-23.45485 5.04049,-33.61912c0.87454,-0.78976 0.87454,-1.58101 1.70743,-2.4139c0.83289,-1.79221 1.66579,-2.58345 3.33306,-4.29386l0.83289,-0.78976l3.33306,-3.37619l3.41486,-2.50017l12.57965,-10.078c1.66579,-1.70743 4.2076,-4.20908 5.87338,-6.66612c0.87454,-1.70446 1.70743,-2.62361 3.37619,-4.20611c0,-0.91469 0.83141,-0.91469 0.83141,-1.79221c0.83438,-0.78679 1.70743,-2.4139 1.70743,-3.28844c0.79125,-0.91618 0.79125,-1.70743 1.62414,-3.29141l0,-1.79221c0.87454,-1.62414 0.87454,-3.29141 0.87454,-5.79009l0,0l0,-7.58379c0,-2.62807 -0.87454,-5.918 -0.87454,-8.4137c0,-2.58197 0,-5.87338 0.87454,-8.37206c0.83587,-2.58197 1.66727,-5.95964 3.37619,-8.37503c0,2.41539 0,5.79307 0.79125,8.37503c0.83587,2.49868 0.83587,4.99438 1.70594,7.49752c0.83438,3.37619 1.70743,7.5823 2.50165,10.87371l0,5.08065l0,0.91767c0,3.28844 -0.79125,6.66165 -1.66727,9.16182c-0.83438,1.70594 -1.70743,3.41635 -1.70743,4.20908c-0.83438,0.78827 -0.83438,1.6643 -1.62414,2.58048l-0.83438,0.78827c-0.87454,0.79274 -0.87454,1.70594 -1.70743,2.50314c-2.54032,4.20611 -5.87338,7.58379 -9.24808,10.87222c-4.2076,4.20908 -9.20644,7.58527 -14.24693,10.16427l-0.87454,0.83438c0.87454,0.79274 2.50017,2.45703 4.20611,4.16744c5.87338,5.91651 15.12295,14.28708 29.36839,23.57979c6.75089,4.16744 15.12295,8.37355 24.37103,12.5395c1.70594,0.78827 2.54181,0.78827 4.2076,1.70594c5.87338,2.50017 11.74527,4.20611 18.49617,6.70925a171.56101,171.56101 0 0 1 7.53917,2.58048c14.24693,4.16595 29.40706,6.58283 47.86307,9.16479c3.37619,0 5.918,0.78679 9.24957,0.78679l0.83587,0s0,0.91767 0.87454,0.91767c0.79274,1.70446 2.50017,5.08065 4.24775,9.28973c0,0.78976 0.78976,0.78976 0.78976,1.58101c0.78976,2.58048 2.50165,4.2076 4.16595,6.78956c8.41519,12.57668 24.37103,28.53698 54.61396,36.11482c0,0 -26.07698,-30.32919 -20.16493,-68.06964c13.45568,-16.74858 21.03946,-24.32641 28.53698,-30.32622c1.66727,-0.79125 3.37768,-2.37672 5.87189,-4.16595c1.70743,-1.62712 4.20908,-3.29439 6.78956,-4.99884c1.58101,-0.79125 3.2929,-2.50165 4.99736,-3.41635c0.78976,-0.79125 2.49868,-1.58101 3.37619,-2.50165c0.78976,-0.78976 1.62414,-0.78976 1.62414,-1.6643c1.66727,-0.79274 2.58197,-1.62712 3.37768,-2.50165c5.87338,-4.20611 10.95254,-7.49752 10.95254,-7.49752s-11.7423,1.62563 -19.32608,0.79274l-0.00002,0.00002zm-245.23037,-86.47657c1.62414,5.87338 4.2076,10.87222 6.70627,15.95584c0.83289,1.70594 1.66579,4.16744 3.3747,5.87338c1.62414,3.41635 4.20908,6.70776 6.70776,9.20346c-1.66727,-1.62414 -3.33306,-3.41635 -5.08362,-5.79307c-5.83025,-6.78808 -10.91238,-12.70607 -14.24544,-21.07665c-0.83438,-1.66727 -1.66727,-3.29141 -1.66727,-5.08362c-0.83289,-1.58101 -0.83289,-2.50017 -0.83289,-4.20611c0,-0.79125 0,-1.58101 -0.83289,-2.45555c0,-1.70743 -0.83289,-3.29141 -0.83289,-5.12378c-0.87454,-6.58283 -1.70743,-15.03817 -0.87454,-25.11915c0,0 0.87454,10.078 4.2076,22.74541c0,1.58101 0.83438,3.28844 0.83438,4.99587c0.83289,1.66579 0.83289,3.37619 1.70743,4.9572c-0.00149,1.7104 -0.00149,3.41783 0.83141,5.12675l-0.00001,0.00002zm201.53623,-162.16866l0,0l0,0l0,0zm-124.30625,82.43704l7.5823,0l4.20908,0c8.37206,-0.91618 14.24395,-1.79221 17.62163,-2.6251c15.95436,-2.45703 31.07731,-15.16311 41.1568,-23.53665l8.37503,-8.37206l0.83438,-0.79125l0.87454,-0.79125c5.91651,-5.12378 10.91387,-11.78841 15.91271,-17.78672l2.57899,-3.29141l3.37619,-3.28993l1.62712,-2.58345c1.6643,-1.5825 2.58197,-3.41486 4.16744,-4.99884l4.20611,-4.16595c3.37322,-2.6251 5.99683,-5.12378 9.28824,-7.62246c0.87602,-0.79125 1.6643,-0.79125 2.50017,-1.66579l0.79125,0l0,0l0,0c1.78923,0 2.58197,0.87454 3.3747,1.66579c0.79274,0.83289 2.58197,2.50017 3.41783,3.41635c0.78827,0.79125 0.78827,1.5825 1.66579,2.37374c0.83289,0.91618 1.70594,1.83236 1.70594,2.6251c1.58101,2.50017 3.41486,6.78956 4.20611,10.95551c0.78976,4.2076 1.5825,7.49901 2.50017,11.66347c0.87454,4.29088 0.87454,7.58081 0.87454,11.78841c0,5.87338 -0.87454,11.78841 -1.78923,17.66179c0,1.5825 -0.79125,2.50017 -0.79125,4.2076l0,1.5825c-0.78976,4.29088 -1.58101,7.5823 -3.41635,11.78841c-1.58101,4.16595 -2.45703,7.5823 -4.16744,10.95551c0,0.79125 -0.78827,0.79125 -0.78827,1.70743c-0.83587,1.70743 -1.70594,3.28844 -3.41783,4.16595c-3.3747,4.20611 -7.5823,8.41222 -12.58114,10.91387c-1.66281,0 -4.16595,0.78976 -5.87189,0.78976c-0.91469,0 -1.70446,0 -1.70446,-0.78976c-1.58101,-0.83438 -3.37619,-1.62414 -4.95571,-2.50165c-2.62659,-0.91469 -4.99884,-2.49868 -7.58527,-3.28844c-7.62246,-3.41635 -14.2856,-6.78956 -21.86789,-9.29122c-2.50165,-0.91618 -5.83322,-1.70743 -8.37503,-2.50017c-2.50017,-0.91618 -5.04198,-0.91618 -7.5347,-0.91618c-11.79138,-0.87454 -22.70822,0.91618 -32.78474,3.41635c-1.70743,0.79125 -4.2076,0.79125 -5.87338,1.70743c-0.78976,0 -0.78976,0.79125 -1.66579,0.79125c-1.70594,0.78976 -2.54181,0.78976 -4.24775,1.66727c-0.79125,0 -0.79125,0.91469 -1.62414,0.91469c-0.87454,0 -0.87454,0.79274 -1.70743,0.79274l-5.04049,2.49868c-2.50165,0.91767 -5.87338,2.50165 -7.53917,2.50165c-1.66727,0.78976 -3.37768,0.78976 -5.04198,0.78976l-4.16595,0c-1.70743,0 -3.41635,0 -5.08362,-0.78976c-2.49868,-0.78976 -3.3747,-0.78976 -3.3747,-0.78976l0,0.78976l0,-0.78976l0,0l0,0l0.87454,10.07949l0,0l0,4.16595l0,2.50165c0,1.70594 0.83289,4.20611 0.83289,5.91503c0.83438,6.66314 3.33306,14.24544 5.87338,21.03798c1.66579,4.20611 3.37619,8.37206 5.87338,12.57817c0.83438,1.5825 1.66579,3.37768 2.54032,4.16595c2.54181,4.20908 5.87338,8.41519 10.08098,12.58114c0,0 0.83438,0.79274 1.6643,0.79274c6.70925,6.78808 15.12295,10.99716 23.49501,14.37037c0,0 0.87602,0 0.87602,0.78976c3.33008,1.70446 6.70776,4.20611 10.91387,5.918c1.66727,0.78976 3.33306,1.6643 5.04049,1.6643c5.83471,1.62712 12.58114,3.41635 19.29039,2.50165c4.20611,0 8.41519,-0.87454 11.74527,-2.50165c0.83587,0 1.70594,-0.87454 1.70594,-0.87454l0,1.70743l0,0.78976c0,0.87454 -0.87454,1.78923 -0.87454,1.78923c-0.83438,1.58101 -2.50165,3.29141 -4.16893,4.20611c-3.37619,2.37672 -6.74792,3.29141 -10.95403,4.16595c-4.16595,0.79274 -8.37206,1.58101 -12.53801,1.58101l-4.20908,0c-2.54181,0 -4.24627,0 -6.74792,-0.78827c-6.70776,-0.79274 -12.58114,-3.37768 -18.45155,-6.78808c-1.70743,-0.78976 -2.54181,-1.58101 -4.16595,-2.37672l0,0c-6.74792,-4.29237 -12.6213,-9.28973 -18.5393,-14.37037l-0.83438,-0.79274c-0.78976,-0.78679 -1.6643,-1.70446 -2.49868,-2.57899c-2.54181,-2.41688 -4.20908,-4.20611 -5.87338,-6.70776l-7.5823,-10.08098c-1.66727,-2.49868 -3.37619,-4.16595 -4.20908,-6.66165c-0.78976,-1.70743 -1.66727,-3.41635 -2.50017,-4.2076c-1.70594,-2.50017 -3.3747,-5.87338 -5.04198,-8.49848c0,-0.79125 -0.83438,-0.79125 -0.83438,-1.5825c-0.87454,-0.78976 -0.87454,-1.70743 -1.70743,-2.58197c-3.33157,-6.58283 -6.66314,-12.58114 -9.2466,-19.24279c-1.62563,-4.2076 -2.45852,-7.49901 -3.33455,-11.78989l0,-9.28824l0,-0.79125c0,-0.78976 0,-1.5825 0.87602,-2.50165c0,-0.87454 0,-0.87454 0.83438,-1.70594c4.99884,-16.7456 21.78609,-20.9532 28.53401,-20.9532l0,0c3.33008,2.49422 8.37057,3.4104 13.40957,3.4104l0.00002,-0.00002zm-102.43241,84.81227s6.70627,17.53685 32.74161,36.90607c-7.53917,-1.70743 -29.40855,-15.95138 -32.74161,-36.90607zm42.82258,-4.20611c-0.83289,-1.79221 -2.50017,-3.37619 -3.33306,-4.29088c-3.41337,-4.99884 -5.91503,-10.08098 -7.58081,-15.87255c-0.83438,-1.78923 -0.83438,-4.29237 -0.83438,-5.95518c-0.83289,-9.20644 0,-20.16493 5.83174,-32.74458c0.87454,-1.5825 1.74907,-4.2076 2.58197,-5.87338c0,0 -2.58197,14.24693 0,33.61912c0.83289,8.37206 3.33157,18.45155 6.66314,28.5355c0.87454,1.70743 0.87454,3.37322 1.70743,4.20611c1.70594,4.16595 4.20611,9.24957 7.53768,13.45568l-12.5737,-15.07982l-0.00001,-0.00002zm74.73129,-111.76527s-0.83289,0 0,0c-1.70594,0 -1.70594,-0.79125 -2.50017,-1.66579c0,-0.91618 -0.83438,-0.91618 -0.83438,-1.70743l0,0.79125l0,2.58197c0,0.83289 0,1.70743 0.83438,3.41635c0.78976,3.3747 4.20611,5.79009 6.70776,5.79009c0.83438,0 1.66579,0 2.54032,-0.79125c1.62563,-0.83289 2.50017,-1.62414 3.33306,-3.41635c0.83289,-1.5825 0.83289,-2.49868 0.83289,-4.16595l0,-1.62414c-1.66579,0 -3.33008,-0.87454 -5.87189,-1.79072c-0.83438,0 -1.62563,-0.79125 -1.62563,-0.79125l0,0c0,1.70743 -1.70743,3.37322 -3.41635,3.37322l0.00001,0z" id="svg_2" fill="#e6e4e5" stroke="null"/>
 </g>

</svg>