<svg width="512" height="512" xmlns="http://www.w3.org/2000/svg" aria-hidden="true" focusable="false" data-prefix="fab" data-icon="whatsapp" class="svg-inline--fa fa-whatsapp fa-w-14" role="img">
 <g>
  <title>Layer 1</title>
  <path fill="#e6e4e5" d="m414.9,97.1c-41.9,-42 -97.7,-65.1 -157,-65.1c-122.4,0 -222,99.6 -222,222c0,39.1 10.2,77.3 29.6,111l-31.5,115l117.7,-30.9c32.4,17.7 68.9,27 106.1,27l0.1,0c122.3,0 224.1,-99.6 224.1,-222c0,-59.3 -25.2,-115 -67.1,-157zm-157,341.6c-33.2,0 -65.7,-8.9 -94,-25.7l-6.7,-4l-69.8,18.3l18.6,-68.1l-4.4,-7c-18.5,-29.4 -28.2,-63.3 -28.2,-98.2c0,-101.7 82.8,-184.5 184.6,-184.5c49.3,0 95.6,19.2 130.4,54.1c34.8,34.9 56.2,81.2 56.1,130.5c0,101.8 -84.9,184.6 -186.6,184.6zm101.2,-138.2c-5.5,-2.8 -32.8,-16.2 -37.9,-18c-5.1,-1.9 -8.8,-2.8 -12.5,2.8c-3.7,5.6 -14.3,18 -17.6,21.8c-3.2,3.7 -6.5,4.2 -12,1.4c-32.6,-16.3 -54,-29.1 -75.5,-66c-5.7,-9.8 5.7,-9.1 16.3,-30.3c1.8,-3.7 0.9,-6.9 -0.5,-9.7c-1.4,-2.8 -12.5,-30.1 -17.1,-41.2c-4.5,-10.8 -9.1,-9.3 -12.5,-9.5c-3.2,-0.2 -6.9,-0.2 -10.6,-0.2c-3.7,0 -9.7,1.4 -14.8,6.9c-5.1,5.6 -19.4,19 -19.4,46.3c0,27.3 19.9,53.7 22.6,57.4c2.8,3.7 39.1,59.7 94.8,83.8c35.2,15.2 49,16.5 66.6,13.9c10.7,-1.6 32.8,-13.4 37.4,-26.4c4.6,-13 4.6,-24.1 3.2,-26.4c-1.3,-2.5 -5,-3.9 -10.5,-6.6z" id="svg_1"/>
 </g>

</svg>