<?xml version="1.0" encoding="utf-8"?>
<!-- Generator: Adobe Illustrator 21.0.0, SVG Export Plug-In . SVG Version: 6.00 Build 0)  -->
<svg version="1.1" id="Layer_1" xmlns="http://www.w3.org/2000/svg" xmlns:xlink="http://www.w3.org/1999/xlink" x="0px" y="0px"
	 viewBox="0 0 30 30" style="enable-background:new 0 0 30 30;" xml:space="preserve">
<style type="text/css">
	.st0{fill:none;}
	.st1{fill:#E6E4E5;}
</style>
<path class="st0" d="M0,0h30v30H0V0z"/>
<g>
	<path class="st1" d="M2.2,25.8c0.1-1.1,0.3-2,0.4-2.9c0-4.7,0-9.4,0-14.1c0-0.4,0-0.7,0-1.2c1.6,0,3.1,0,4.8,0c0-0.7,0-1.3,0-2.1
		c1.5,0,2.9,0,4.3,0c0.6,0,1,0,1.3-1c0.3-0.9,0.9-1.3,1.7-1.3s1.4,0.5,1.6,1.5c0.2,0.6,0.4,0.8,0.9,0.8c1.7,0,3.4,0,5.1,0
		c0,0.7,0,1.3,0,2c1.4,0,2.8,0,4.2,0c0,2.2,0,4.4,0,6.5c0.1,0.1,0.1,0.1,0.2,0.2c0.1-0.2,0.4-0.4,0.4-0.6c0-2.1,0-4.3,0-6.4
		c0-0.2-0.2-0.4-0.2-0.6c0-0.5,0-1.1,0.2-1.5c0.1-0.2,0.8-0.2,0.9,0c0.2,0.3,0.2,1,0.2,1.5c0,0-0.1,0.1-0.1,0.2
		c0,2.7-0.6,5.5,0.3,8.1c0.4,1.2,0,2.5-0.9,2.6c-0.3,0.1-0.6,0-1.1,0c0.1,2.8,0.2,5.5,0.3,8.3c-0.2,0-0.5,0-0.8,0
		c-2.4,0-4.7,0-7.1,0c-0.4,0-0.8,0.2-1.1,0.4c-2.1,1.5-4.1,1.5-6.2,0c-0.3-0.2-0.7-0.4-1.1-0.4c-2.4,0-4.8,0-7.2,0
		C2.9,25.8,2.6,25.8,2.2,25.8z M4.1,9.7c0,3.6,0,7.2,0,10.7c2.2,0,4.3,0,6.4,0c0-3.6,0-7.1,0-10.7C8.4,9.7,6.2,9.7,4.1,9.7z
		 M11.2,9.7c0,3.6,0,7.2,0,10.7c2.2,0,4.3,0,6.4,0c0-3.6,0-7.1,0-10.7C15.5,9.7,13.4,9.7,11.2,9.7z M18.4,9.7c0,3.6,0,7.2,0,10.7
		c2.2,0,4.3,0,6.4,0c0-3.6,0-7.1,0-10.7C22.7,9.7,20.5,9.7,18.4,9.7z M17.6,24.6c-1.1-1.4-5.3-1.3-6,0.1C12.6,26,16.5,26,17.6,24.6z
		"/>
	<path class="st1" d="M22.7,18.2C22.7,18.3,22.7,18.3,22.7,18.2l-2.2,0.1v-0.1l1.6-4.6H21v1c0,0.1,0,0.2,0,0.2h-1.3
		c0,0-0.1,0-0.1-0.1v-2.5c0-0.1,0-0.1,0.1-0.1h4.5c0,0,0.1,0.1,0,0.2L22.7,18.2z"/>
	<path class="st1" d="M15.4,18.2C15.4,18.3,15.3,18.3,15.4,18.2l-2.2,0.1v-0.1l1.6-4.6h-1.2v1c0,0.1,0,0.2,0,0.2h-1.3
		c0,0-0.1,0-0.1-0.1v-2.5c0-0.1,0-0.1,0.1-0.1h4.5c0,0,0.1,0.1,0,0.2L15.4,18.2z"/>
	<path class="st1" d="M8.1,18.2C8.1,18.3,8.1,18.3,8.1,18.2l-2.2,0.1v-0.1l1.6-4.6H6.4v1c0,0.1,0,0.2,0,0.2H5c0,0-0.1,0-0.1-0.1
		v-2.5c0-0.1,0-0.1,0.1-0.1h4.5c0,0,0.1,0.1,0,0.2L8.1,18.2z"/>
</g>
</svg>
