<svg width="30" height="30" xmlns="http://www.w3.org/2000/svg">

 <g>
  <title>Layer 1</title>
  <g id="svg_1" fill="#e0c55e">
   <path fill="#e6e4e5" id="svg_2" d="m15.9,10.67a1.13,1.13 0 0 1 -0.1,0.13l-4,3.25a0.36,0.36 0 0 1 -0.25,0.06l-4.92,-1.11c-0.12,0 -0.15,-0.08 -0.17,-0.18c-0.23,-1.31 -0.46,-2.62 -0.7,-3.92a0.34,0.34 0 0 1 0.1,-0.35l1.56,-1.66a23.51,23.51 0 0 1 2.8,-2.29a0.58,0.58 0 0 1 0.64,-0.11l3.93,1.18a0.26,0.26 0 0 1 0.21,0.23c0.21,0.87 0.46,1.73 0.63,2.6c0.15,0.7 0.19,1.43 0.27,2.17z"/>
   <path fill="#e6e4e5" id="svg_3" d="m6.36,13.56c0.58,0.13 1.11,0.24 1.64,0.37l3.26,0.73a0.27,0.27 0 0 1 0.22,0.21l1.91,5.37a0.24,0.24 0 0 1 -0.05,0.28c-0.9,1.09 -1.79,2.19 -2.68,3.3a0.22,0.22 0 0 1 -0.27,0.08l-4.22,-1.24a0.35,0.35 0 0 1 -0.2,-0.14a14,14 0 0 1 -2.11,-5.52a0.36,0.36 0 0 1 0.06,-0.27l2.31,-3a0.68,0.68 0 0 1 0.13,-0.17z"/>
   <path fill="#e6e4e5" id="svg_4" d="m15.6,5.67q0.63,-0.36 1.26,-0.69c0.65,-0.36 1.29,-0.72 1.95,-1.07a0.48,0.48 0 0 1 0.29,0a15.69,15.69 0 0 1 5,2.93a0.44,0.44 0 0 1 0.18,0.31c0.09,1.46 0.19,2.91 0.29,4.36a0.26,0.26 0 0 1 -0.16,0.28l-3.25,2a0.27,0.27 0 0 1 -0.34,0l-4.14,-2.79a0.38,0.38 0 0 1 -0.16,-0.25a22.88,22.88 0 0 0 -0.89,-4.93a0.53,0.53 0 0 1 -0.03,-0.15z"/>
   <path fill="#e6e4e5" id="svg_5" d="m11.05,24.21l2.62,-3.21l0.05,-0.06c0.41,-0.5 0.41,-0.49 1,-0.54c1.46,-0.11 2.92,-0.22 4.38,-0.35a0.51,0.51 0 0 1 0.51,0.21c0.73,0.92 1.48,1.82 2.22,2.71a0.2,0.2 0 0 1 0,0.29c-0.74,1 -1.47,2 -2.21,3a0.41,0.41 0 0 1 -0.24,0.17c-0.92,0.17 -1.83,0.36 -2.75,0.48a13.89,13.89 0 0 1 -1.63,0.09c-0.6,0 -1.2,0 -1.81,0a0.28,0.28 0 0 1 -0.2,-0.08l-1.94,-2.71z"/>
   <path fill="#e6e4e5" id="svg_6" d="m27.23,15.06a13.11,13.11 0 0 1 -0.42,2.94a10.88,10.88 0 0 1 -1.44,3.09a1,1 0 0 1 -0.45,0.38l-2.29,1.15c-0.13,0.07 -0.2,0.05 -0.29,-0.07c-0.79,-1 -1.59,-1.94 -2.37,-2.91a0.35,0.35 0 0 1 -0.06,-0.28c0.4,-1.59 0.82,-3.2 1.24,-4.79a0.37,0.37 0 0 1 0.17,-0.22l3.58,-2.13a0.17,0.17 0 0 1 0.26,0c0.66,0.76 1.32,1.53 2,2.28c0.15,0.21 0.04,0.39 0.07,0.56z"/>
   <path fill="#e6e4e5" id="svg_7" d="m10.82,1.41c-0.22,0.8 -0.44,1.6 -0.67,2.4a0.38,0.38 0 0 1 -0.15,0.19c-0.36,0.28 -0.72,0.57 -1.1,0.83a15.86,15.86 0 0 0 -3.19,3a2,2 0 0 1 -1.15,0.73c-0.73,0.17 -1.45,0.4 -2.18,0.6l-0.25,0.06a14.44,14.44 0 0 1 8.63,-7.88l0.06,0.07z"/>
   <path fill="#e6e4e5" id="svg_8" d="m5.2,25a13.23,13.23 0 0 1 -4.2,-10.19l0.13,0.11l1.87,1.89a0.45,0.45 0 0 1 0.13,0.23a14.39,14.39 0 0 0 2,5.34a1.6,1.6 0 0 1 0.25,1.15a14,14 0 0 0 -0.11,1.47l-0.07,0z"/>
   <path fill="#e6e4e5" id="svg_9" d="m26.47,6.84c-0.49,-0.08 -0.92,-0.17 -1.36,-0.23a1.14,1.14 0 0 1 -0.55,-0.24c-0.6,-0.46 -1.21,-0.9 -1.81,-1.35a13.09,13.09 0 0 0 -2.75,-1.46a3.76,3.76 0 0 1 -1,-0.42a3.55,3.55 0 0 1 -0.57,-0.84c-0.27,-0.42 -0.54,-0.85 -0.8,-1.3a16.12,16.12 0 0 1 5,2.05a15.1,15.1 0 0 1 3.84,3.79z"/>
   <path fill="#e6e4e5" id="svg_10" d="m22.06,27l-0.53,0.35a11.45,11.45 0 0 1 -4.4,1.5a16,16 0 0 1 -6.23,-0.52l-0.13,-0.05l0.11,-0.07l1.57,-0.73a0.66,0.66 0 0 1 0.25,0c1.22,0 2.44,0.13 3.66,0.08a14,14 0 0 0 2.47,-0.43a5.39,5.39 0 0 1 1.44,-0.13l1.59,0l0.19,0s0.01,0 0.01,0z"/>
   <path fill="#e6e4e5" id="svg_11" d="m26.17,23.41l-0.25,-1.86a0.65,0.65 0 0 1 0.08,-0.22c0.4,-0.8 0.84,-1.59 1.21,-2.41a9.37,9.37 0 0 0 0.63,-3.44a3.09,3.09 0 0 0 0,-0.43a2.54,2.54 0 0 1 0.44,-1.79a7.94,7.94 0 0 0 0.46,-0.86a14.66,14.66 0 0 1 -2.57,11.01z"/>
  </g>
 </g>
</svg>