<svg width="512" height="512" xmlns="http://www.w3.org/2000/svg" xml:space="preserve" version="1.1">

 <g>
  <title>Layer 1</title>
  <path id="svg_1" fill="#e6e4e5" d="m506.6,202.8l-242.7,-159.5c-4.7,-3.1 -11,-3.1 -15.7,0l-242.8,159.5c-5.9,3.9 -7.2,11.4 -2.9,16.7s12.7,6.5 18.6,2.6l35.3,-23.2l0,239.8c0,6.6 6,11.9 13.3,11.9l133,0c7,0 12.7,-4.8 13.3,-11c0,-0.3 0.1,-0.6 0.1,-0.9l0,-115.7c0,-19.7 17.9,-35.8 39.9,-35.8s39.9,16.1 39.9,35.8l0,115.7c0,0.3 0,0.6 0.1,0.9c0.5,6.2 6.3,11 13.2,11l133,0c7.3,0 13.3,-5.3 13.3,-11.9l0,-239.8l35.3,23.2c2.4,1.6 5.1,2.3 7.8,2.3c4.1,0 8.1,-1.7 10.7,-4.9c4.5,-5.4 3.2,-12.8 -2.7,-16.7l0,0zm-317.1,120.2c0,-27.9 21.4,-51.4 50.3,-57.9c-28.9,6.5 -50.3,30 -50.3,57.9zm-106.6,-141.6l173.1,-113.7l-173.1,113.7zm346,245.3l-106.4,0l106.4,0l0.1,-245.3l-0.1,245.3z" class="st0"/>
 </g>
</svg>