<svg width="30" height="30" xmlns="http://www.w3.org/2000/svg">

 <g>
  <title>Layer 1</title>
  <path id="svg_1" fill="#e6e4e5" d="m29,13.84a12.08,12.08 0 0 0 -0.38,-2.32a14.58,14.58 0 0 0 -1.25,-3.19a13.41,13.41 0 0 0 -2,-2.79a14.14,14.14 0 0 0 -1.74,-1.54a14,14 0 0 0 -5.12,-2.53a12.29,12.29 0 0 0 -3,-0.42a15.52,15.52 0 0 0 -2.64,0.13a14.46,14.46 0 0 0 -4,1.22a14,14 0 0 0 -3.4,2.3a13.87,13.87 0 0 0 -2.12,2.49a14.22,14.22 0 0 0 -1.85,4a13.38,13.38 0 0 0 -0.5,2.34l0,0.63l0,0.17a0.11,0.11 0 0 1 0,0.11l0,0.14a0.37,0.37 0 0 1 0,0.18l0,0.17l0,0.2a0.66,0.66 0 0 1 0,0.28l0,0.15s0,0.06 0,0.08s0,0.08 0,0.11l0,0.12s0,0 0,0.06a8.93,8.93 0 0 0 0.1,1.16a14.16,14.16 0 0 0 1.63,4.76a14.52,14.52 0 0 0 2.94,3.64a13.51,13.51 0 0 0 3.06,2.07a13.21,13.21 0 0 0 3.27,1.14a11,11 0 0 0 1.52,0.25l0.63,0l0.11,0a0.25,0.25 0 0 1 0.17,0l0.17,0a0.81,0.81 0 0 1 0.31,0l0.17,0a0.71,0.71 0 0 1 0.29,0l0.17,0a0.25,0.25 0 0 1 0.17,0l0.08,0s0.08,0 0.11,0c0.32,0 0.64,0 1,-0.07a14.16,14.16 0 0 0 4.77,-1.56a14,14 0 0 0 5,-4.53a13.65,13.65 0 0 0 1.52,-3a13.29,13.29 0 0 0 0.81,-3.79a14.42,14.42 0 0 0 0,-2.16zm-15.48,7.64l-4.25,0a0.62,0.62 0 0 1 -0.7,-0.69l0,-4.25a0.61,0.61 0 0 1 0.68,-0.68l4.28,0a0.6,0.6 0 0 1 0.68,0.67l0,4.27a0.61,0.61 0 0 1 -0.69,0.68zm0.69,-7.48a0.61,0.61 0 0 1 -0.69,0.68l-4.26,0a0.62,0.62 0 0 1 -0.69,-0.68l0,-4.3a0.62,0.62 0 0 1 0.69,-0.7l4.26,0a0.62,0.62 0 0 1 0.69,0.69l0,4.31zm6.89,6.8a0.62,0.62 0 0 1 -0.68,0.68l-4.28,0a0.61,0.61 0 0 1 -0.67,-0.67l0,-4.29a0.61,0.61 0 0 1 0.68,-0.67l4.28,0a0.61,0.61 0 0 1 0.67,0.68l0,4.27zm0.07,-8.31l-2.55,2.51a0.53,0.53 0 0 1 -0.42,0.17a0.51,0.51 0 0 1 -0.42,-0.17l-2.57,-2.56a0.57,0.57 0 0 1 0,-0.84l2.55,-2.56a0.6,0.6 0 0 1 0.86,0c0.85,0.84 1.69,1.69 2.54,2.54a0.58,0.58 0 0 1 0.01,0.91z"/>
 </g>
</svg>