<svg width="512" height="512" xmlns="http://www.w3.org/2000/svg" role="img" class="svg-inline--fa fa-gift fa-w-16" data-icon="gift" data-prefix="fas" focusable="false" aria-hidden="true">
 <g>
  <title>Layer 1</title>
  <path stroke="null" id="svg_1" d="m45.125,437.875c0,16.66289 13.46211,30.125 30.125,30.125l150.625,0l0,-150.625l-180.75,0l0,120.5zm241,30.125l150.625,0c16.66289,0 30.125,-13.46211 30.125,-30.125l0,-120.5l-180.75,0l0,150.625zm180.75,-301.25l-39.6332,0c5.83672,-11.39102 9.5082,-24.00586 9.5082,-37.65625c0,-45.6582 -37.18555,-82.84375 -82.84375,-82.84375c-39.1625,0 -64.48633,20.05195 -96.96484,64.29805c-32.47852,-44.24609 -57.80234,-64.29805 -96.96484,-64.29805c-45.6582,0 -82.84375,37.18555 -82.84375,82.84375c0,13.65039 3.57734,26.26523 9.5082,37.65625l-41.51602,0c-16.66289,0 -30.125,13.46211 -30.125,30.125l0,75.3125c0,8.28438 6.77813,15.0625 15.0625,15.0625l451.875,0c8.28438,0 15.0625,-6.77812 15.0625,-15.0625l0,-75.3125c0,-16.66289 -13.46211,-30.125 -30.125,-30.125zm-306.99258,0c-20.80508,0 -37.65625,-16.85117 -37.65625,-37.65625s16.85117,-37.65625 37.65625,-37.65625c18.73398,0 32.57266,3.10664 81.05508,75.3125l-81.05508,0zm194.02383,0l-81.05508,0c48.38828,-72.01758 61.85039,-75.3125 81.05508,-75.3125c20.80508,0 37.65625,16.85117 37.65625,37.65625s-16.85117,37.65625 -37.65625,37.65625z" fill="#e6e4e5"/>
 </g>

</svg>