<?xml version="1.0" encoding="utf-8"?>
<!-- Generator: Adobe Illustrator 21.0.0, SVG Export Plug-In . SVG Version: 6.00 Build 0)  -->
<svg version="1.1" id="Layer_1" xmlns="http://www.w3.org/2000/svg" xmlns:xlink="http://www.w3.org/1999/xlink" x="0px" y="0px"
	 viewBox="0 0 512 512" style="enable-background:new 0 0 512 512;" xml:space="preserve">
<style type="text/css">
	.st0{fill:#E6E4E5;}
</style>
<g>
	<path class="st0" d="M506.6,188.2L263.9,30.1c-4.7-3-11-3-15.7,0L5.4,188.2c-5.9,3.9-7.2,11.3-2.9,16.5c4.3,5.3,12.7,6.4,18.6,2.6
		L256,54.3l234.8,153c2.4,1.5,5.1,2.3,7.8,2.3c4.1,0,8.1-1.7,10.7-4.8C513.8,199.5,512.5,192.1,506.6,188.2L506.6,188.2z"/>
	<path class="st0" d="M442.2,210c-7.3,0-13.3,5.3-13.3,11.8v188.5H322.5V307.4c0-32.6-29.8-59.2-66.5-59.2s-66.5,26.6-66.5,59.2
		v102.9H83.1V221.9c0-6.5-6-11.8-13.3-11.8s-13.3,5.3-13.3,11.8v200.3c0,6.5,6,11.8,13.3,11.8h133c7,0,12.7-4.8,13.3-10.9
		c0-0.3,0.1-0.6,0.1-0.9V307.4c0-19.6,17.9-35.5,39.9-35.5s39.9,15.9,39.9,35.5v114.7c0,0.3,0,0.6,0.1,0.9
		c0.5,6.1,6.3,10.9,13.3,10.9h133c7.3,0,13.3-5.3,13.3-11.8V221.9C455.5,215.3,449.6,210,442.2,210L442.2,210z"/>
</g>
</svg>
